<mxfile host="Electron" modified="2023-06-30T07:29:45.913Z" agent="Mozilla/5.0 (Windows NT 10.0; Win64; x64) AppleWebKit/537.36 (KHTML, like Gecko) draw.io/21.2.8 Chrome/112.0.5615.165 Electron/24.2.0 Safari/537.36" etag="FyZB46PjLGZMJ7nTdphi" version="21.2.8" type="device">
  <diagram name="Seite-1" id="ECRTKt9pkZ5ElSx2RLRp">
    <mxGraphModel dx="780" dy="504" grid="1" gridSize="10" guides="1" tooltips="1" connect="1" arrows="1" fold="1" page="1" pageScale="1" pageWidth="827" pageHeight="1169" math="0" shadow="0">
      <root>
        <mxCell id="0" />
        <mxCell id="1" parent="0" />
        <mxCell id="tIw_PshHQDe97qKYpNXE-3" value="&lt;font color=&quot;#ebb07a&quot;&gt;2023&lt;/font&gt;/&lt;span style=&quot;font-family: Consolas, &amp;quot;Courier New&amp;quot;, monospace; font-size: 14px; color: rgb(235, 176, 122);&quot;&gt;06&lt;/span&gt;&lt;span style=&quot;font-family: Consolas, &amp;quot;Courier New&amp;quot;, monospace; font-size: 14px;&quot;&gt;/&lt;/span&gt;&lt;span style=&quot;font-family: Consolas, &amp;quot;Courier New&amp;quot;, monospace; font-size: 14px; color: rgb(235, 176, 122);&quot;&gt;29&lt;/span&gt;&lt;span style=&quot;color: rgb(171, 178, 191); font-family: Consolas, &amp;quot;Courier New&amp;quot;, monospace; font-size: 14px;&quot;&gt;&amp;nbsp;&lt;/span&gt;&lt;span style=&quot;font-family: Consolas, &amp;quot;Courier New&amp;quot;, monospace; font-size: 14px;&quot;&gt;05:56:19&lt;/span&gt;&lt;span style=&quot;font-family: Consolas, &amp;quot;Courier New&amp;quot;, monospace; font-size: 14px;&quot;&gt;&amp;nbsp;[Routine]&lt;/span&gt;&lt;span style=&quot;color: rgb(171, 178, 191); font-family: Consolas, &amp;quot;Courier New&amp;quot;, monospace; font-size: 14px;&quot;&gt;&amp;nbsp;&lt;/span&gt;&lt;span style=&quot;font-family: Consolas, &amp;quot;Courier New&amp;quot;, monospace; font-size: 14px; color: rgb(146, 214, 158);&quot;&gt;Error&lt;/span&gt;&lt;span style=&quot;color: rgb(171, 178, 191); font-family: Consolas, &amp;quot;Courier New&amp;quot;, monospace; font-size: 14px;&quot;&gt;&amp;nbsp;&lt;/span&gt;&lt;span style=&quot;font-family: Consolas, &amp;quot;Courier New&amp;quot;, monospace; font-size: 14px;&quot;&gt;while extracting items from members.&lt;/span&gt;" style="text;html=1;strokeColor=none;fillColor=none;align=center;verticalAlign=middle;whiteSpace=wrap;rounded=0;" vertex="1" parent="1">
          <mxGeometry x="79" y="250" width="670" height="30" as="geometry" />
        </mxCell>
        <mxCell id="tIw_PshHQDe97qKYpNXE-4" value="Herkinft" style="text;html=1;strokeColor=none;fillColor=none;align=center;verticalAlign=middle;whiteSpace=wrap;rounded=0;" vertex="1" parent="1">
          <mxGeometry x="290" y="200" width="60" height="30" as="geometry" />
        </mxCell>
        <mxCell id="tIw_PshHQDe97qKYpNXE-6" value="" style="endArrow=classic;html=1;rounded=0;fillColor=#a20025;strokeColor=#6F0000;endSize=15;startSize=10;entryX=0.36;entryY=0.211;entryDx=0;entryDy=0;entryPerimeter=0;exitX=0.5;exitY=1;exitDx=0;exitDy=0;" edge="1" parent="1">
          <mxGeometry width="50" height="50" relative="1" as="geometry">
            <mxPoint x="319" y="230" as="sourcePoint" />
            <mxPoint x="319.20000000000005" y="256.33000000000004" as="targetPoint" />
          </mxGeometry>
        </mxCell>
        <mxCell id="tIw_PshHQDe97qKYpNXE-8" value="Nachricht" style="text;html=1;strokeColor=none;fillColor=none;align=center;verticalAlign=middle;whiteSpace=wrap;rounded=0;" vertex="1" parent="1">
          <mxGeometry x="490" y="200" width="60" height="30" as="geometry" />
        </mxCell>
        <mxCell id="tIw_PshHQDe97qKYpNXE-9" value="" style="endArrow=classic;html=1;rounded=0;fillColor=#a20025;strokeColor=#6F0000;endSize=15;startSize=10;exitX=0.5;exitY=1;exitDx=0;exitDy=0;" edge="1" parent="1" source="tIw_PshHQDe97qKYpNXE-8">
          <mxGeometry width="50" height="50" relative="1" as="geometry">
            <mxPoint x="530" y="230" as="sourcePoint" />
            <mxPoint x="520" y="260" as="targetPoint" />
          </mxGeometry>
        </mxCell>
        <mxCell id="tIw_PshHQDe97qKYpNXE-11" value="Datum" style="text;html=1;strokeColor=none;fillColor=none;align=center;verticalAlign=middle;whiteSpace=wrap;rounded=0;" vertex="1" parent="1">
          <mxGeometry x="140" y="200" width="60" height="30" as="geometry" />
        </mxCell>
        <mxCell id="tIw_PshHQDe97qKYpNXE-12" value="" style="endArrow=classic;html=1;rounded=0;fillColor=#a20025;strokeColor=#6F0000;endSize=15;startSize=10;entryX=0.36;entryY=0.211;entryDx=0;entryDy=0;entryPerimeter=0;exitX=0.5;exitY=1;exitDx=0;exitDy=0;" edge="1" parent="1">
          <mxGeometry width="50" height="50" relative="1" as="geometry">
            <mxPoint x="169.5" y="230" as="sourcePoint" />
            <mxPoint x="169.5" y="256" as="targetPoint" />
          </mxGeometry>
        </mxCell>
        <mxCell id="tIw_PshHQDe97qKYpNXE-13" value="Uhrzeit" style="text;html=1;strokeColor=none;fillColor=none;align=center;verticalAlign=middle;whiteSpace=wrap;rounded=0;" vertex="1" parent="1">
          <mxGeometry x="210" y="200" width="60" height="30" as="geometry" />
        </mxCell>
        <mxCell id="tIw_PshHQDe97qKYpNXE-15" value="" style="endArrow=classic;html=1;rounded=0;fillColor=#a20025;strokeColor=#6F0000;endSize=15;startSize=10;entryX=0.36;entryY=0.211;entryDx=0;entryDy=0;entryPerimeter=0;exitX=0.5;exitY=1;exitDx=0;exitDy=0;" edge="1" parent="1">
          <mxGeometry width="50" height="50" relative="1" as="geometry">
            <mxPoint x="239.5" y="230" as="sourcePoint" />
            <mxPoint x="239.5" y="256" as="targetPoint" />
          </mxGeometry>
        </mxCell>
      </root>
    </mxGraphModel>
  </diagram>
</mxfile>
